<svg width="140" height="258" viewBox="0 0 140 258" fill="none" xmlns="http://www.w3.org/2000/svg">
<path fill-rule="evenodd" clip-rule="evenodd" d="M72.2792 62.1636C69.2829 51.7218 71.4081 37.6707 78.9383 24.6284C86.4678 11.5864 97.5744 2.71858 108.115 0.0932992C111.112 10.5347 108.986 24.5874 101.456 37.6291C93.9259 50.6711 82.8195 59.5374 72.2792 62.1636ZM72.2798 252.418C65.5306 252.418 59.6351 257.086 52.7177 257.086C23.8746 257.086 0.483948 220.875 0.483948 192.78C0.483948 164.685 8.73174 154.012 20.745 141.934C34.5116 128.091 40.5178 103.301 41.6029 91.4784C42.6392 80.1912 50.1735 70.9479 60.7415 70.9479C64.4862 70.9479 68.718 73.4248 72.2798 73.4248C75.8416 73.4248 80.0716 70.9479 83.8166 70.9479C94.3843 70.9479 101.919 80.1912 102.955 91.4784C104.02 103.085 109.828 127.187 123.065 141.162C111.9 148.242 104.488 160.709 104.488 174.904C104.488 195.461 120.029 212.391 140 214.59C132.087 236.662 113.502 257.086 91.8401 257.086C84.9233 257.086 79.0287 252.418 72.2798 252.418Z" fill="black"/>
</svg>
